<svg width="34" height="34" viewBox="0 0 34 34" fill="none" xmlns="http://www.w3.org/2000/svg">
<path d="M5.51095 0.476562C3.26095 0.476562 1.00814 2.16406 1.00814 5.53906L5.51095 14.5391L10.011 5.53906C10.011 2.16406 7.76095 0.476562 5.51095 0.476562ZM25.3602 3.21875C24.875 3.23914 24.4039 3.33125 24.0102 3.41562L24.2774 4.65313C24.6711 4.56523 25.0789 4.50969 25.4234 4.48438L25.3602 3.21875ZM5.51095 3.28906C6.75548 3.28906 7.76095 4.29664 7.76095 5.53906C7.76095 6.78359 6.75548 7.78906 5.51095 7.78906C4.26853 7.78906 3.26095 6.78359 3.26095 5.53906C3.26095 4.29664 4.26853 3.28906 5.51095 3.28906ZM26.7594 3.30313L26.5484 4.54766C26.893 4.62008 27.2375 4.71078 27.5399 4.89219L28.1516 3.78125C27.7227 3.55273 27.2445 3.34742 26.7594 3.30313ZM22.7164 3.77422C22.2875 3.94156 21.8586 4.09133 21.493 4.23828L21.9922 5.39844C22.3789 5.23391 22.7867 5.09047 23.1313 4.96953L22.7164 3.77422ZM29.3047 4.71641L28.3414 5.53906C28.5945 5.82875 28.7914 6.18594 28.9461 6.47422L30.0781 5.90469C29.8391 5.44414 29.6281 5.09539 29.3047 4.71641ZM20.3188 4.77969C19.8899 4.99836 19.5383 5.19313 19.1586 5.38438L19.7774 6.49531C20.143 6.28437 20.5438 6.08047 20.8672 5.91875L20.3188 4.77969ZM18.0477 6.03828C17.675 6.25625 17.3094 6.47422 16.9508 6.71328L17.6399 7.76797C17.9844 7.54297 18.343 7.33203 18.6945 7.12109L18.0477 6.03828ZM30.5141 7.29688C30.0992 7.36719 29.6774 7.41641 29.2625 7.46563C29.2906 7.81719 29.2695 8.19688 29.1992 8.49219L30.4297 8.78047C30.5 8.27422 30.5633 7.75391 30.5141 7.29688ZM15.882 7.41641C15.5305 7.65547 15.186 7.90156 14.8344 8.14062L15.5656 9.17422C15.9031 8.92812 16.2477 8.69609 16.5922 8.45703L15.882 7.41641ZM13.8008 8.9C13.4492 9.15312 13.0836 9.43437 12.7813 9.66641L13.5477 10.6719C13.9344 10.3906 14.2016 10.1797 14.5531 9.91953L13.8008 8.9ZM28.7774 9.4625C28.5664 9.78594 28.3203 10.1094 28.0742 10.3555L28.9953 11.2344C29.2977 10.8758 29.6211 10.5102 29.8461 10.1445L28.7774 9.4625ZM11.7758 10.4539C11.4313 10.7211 11.0867 10.9953 10.7844 11.2484L11.5859 12.2258C11.9164 11.9516 12.2539 11.6703 12.5633 11.4453L11.7758 10.4539ZM27.2024 11.1641C26.8789 11.4242 26.5414 11.6773 26.232 11.8883L26.9563 12.9289C27.3289 12.6758 27.6945 12.4016 28.011 12.1484L27.2024 11.1641ZM9.80704 12.0711C9.47657 12.3383 9.16017 12.6195 8.83673 12.8938L9.65939 13.857C9.97579 13.5828 10.2922 13.3086 10.6156 13.0414L9.80704 12.0711ZM25.1985 12.5633C24.8399 12.7742 24.4672 12.9922 24.1297 13.175L24.7344 14.293C25.1141 14.0609 25.543 13.857 25.8594 13.6461L25.1985 12.5633ZM7.87345 13.7305C7.55704 14.0117 7.24767 14.293 6.93126 14.5813L7.78204 15.5234C8.09142 15.2422 8.40782 14.9609 8.7172 14.6797L7.87345 13.7305ZM23.0258 13.7586C22.6531 13.9414 22.2805 14.1313 21.9078 14.3141L22.4492 15.4531C22.8852 15.2422 23.2086 15.0664 23.6024 14.8836L23.0258 13.7586ZM20.7758 14.8414C20.3891 15.0172 20.0164 15.1859 19.6227 15.3477L20.136 16.5078C20.5227 16.3391 20.9094 16.1633 21.2961 15.9875L20.7758 14.8414ZM6.00314 15.4531C5.64454 15.7695 5.39493 16.0156 5.06798 16.332L5.96095 17.2461C6.29142 16.9297 6.55861 16.6555 6.86798 16.3883L6.00314 15.4531ZM18.4695 15.8609C18.0828 16.0227 17.6961 16.1914 17.3094 16.3531L17.8016 17.5273C18.1953 17.3656 18.582 17.1969 18.9688 17.0281L18.4695 15.8609ZM16.1422 16.8453C15.7555 17.0141 15.3688 17.1828 14.975 17.3375L15.4672 18.5117C15.8539 18.35 16.2477 18.1812 16.6344 18.0195L16.1422 16.8453ZM29.136 17.3516C26.886 17.3516 24.636 19.0391 24.636 22.4141L29.136 31.4141L33.636 22.4141C33.636 19.0391 31.386 17.3516 29.136 17.3516ZM13.8078 17.8297C13.407 18.0125 12.9852 18.1812 12.6406 18.3289L13.1399 19.4961C13.5547 19.3203 13.9485 19.1516 14.3 18.9969L13.8078 17.8297ZM11.4734 18.8281C11.0938 19.0039 10.6508 19.2008 10.3133 19.3555L10.8336 20.5086C11.2485 20.3258 11.6141 20.143 11.9797 19.9883L11.4734 18.8281ZM9.15314 19.8828C8.75939 20.0727 8.35157 20.2695 8.00001 20.4453L8.56954 21.5773C8.94923 21.3805 9.34298 21.1977 9.68751 21.0289L9.15314 19.8828ZM29.136 20.1641C30.3805 20.1641 31.386 21.1695 31.386 22.4141C31.386 23.6586 30.3805 24.6641 29.136 24.6641C27.8914 24.6641 26.886 23.6586 26.886 22.4141C26.886 21.1695 27.8914 20.1641 29.136 20.1641ZM6.86095 21.0289C6.48829 21.2328 6.11564 21.4437 5.73595 21.6617L6.36876 22.7586C6.72736 22.5477 7.09298 22.3508 7.45861 22.1539L6.86095 21.0289ZM4.63204 22.3438C4.23759 22.5688 3.8565 22.8711 3.52814 23.0891L4.29454 24.1016C4.644 23.8484 5.02017 23.5883 5.32111 23.4055L4.63204 22.3438ZM2.5297 23.9328C2.1922 24.2422 1.85962 24.6008 1.60157 24.9031L2.56486 25.7258C2.83556 25.3953 3.07111 25.1492 3.38751 24.868L2.5297 23.9328ZM17.8438 24.0242L17.9563 25.2828C18.3219 25.2195 18.6875 25.2617 19.0531 25.318L19.2711 24.0734C18.807 24.0031 18.3149 23.9539 17.8438 24.0242ZM15.2281 24.7273L15.7063 25.9016C16.0719 25.7398 16.4516 25.6133 16.8383 25.4937C16.7047 25.093 16.6063 24.6852 16.5008 24.2773C16.0578 24.4039 15.6149 24.5727 15.2281 24.7273ZM20.6774 24.6641L19.9602 25.7047C20.2555 25.9227 20.5438 26.1547 20.7758 26.443L21.732 25.6133C21.3734 25.2477 21.0992 24.9031 20.6774 24.6641ZM14.0328 25.2969C13.6461 25.4937 13.2734 25.7188 12.9008 25.9367L13.5406 27.0266C13.9063 26.8297 14.2649 26.5977 14.6235 26.4078L14.0328 25.2969ZM0.82884 26.0703C0.616497 26.5273 0.444231 27.0195 0.364075 27.4555L1.60861 27.6734C1.68454 27.2727 1.79353 26.9844 1.95314 26.6398C1.56712 26.4711 1.19868 26.2672 0.82884 26.0703ZM11.8039 26.6187C11.4453 26.8508 11.0938 27.0828 10.7422 27.3219L11.4453 28.3766C11.7969 28.1445 12.1414 27.9055 12.493 27.6734L11.8039 26.6187ZM22.5406 26.7031L21.4789 27.3922C21.7039 27.7297 21.9219 28.0813 22.1258 28.4398L23.2227 27.807C22.9766 27.4133 22.8008 27.0617 22.5406 26.7031ZM9.69454 28.0391C9.34298 28.2711 8.99142 28.4961 8.64689 28.7422L9.35001 29.7969C9.68751 29.5508 10.0461 29.3187 10.4047 29.0797L9.69454 28.0391ZM1.62267 28.707C1.21556 28.7914 0.804934 28.8617 0.395715 28.9391C0.469544 29.4312 0.667122 29.9094 0.845715 30.2891L1.98829 29.7406C1.83572 29.3891 1.69087 29.0234 1.62267 28.707ZM23.8484 28.9039L22.7516 29.5367C22.9695 29.9164 23.2227 30.3242 23.4266 30.6477L24.4883 29.9656C24.2492 29.593 24.0453 29.2414 23.8484 28.9039ZM7.60626 29.4312C7.2547 29.6492 6.91017 29.8602 6.54454 30.0641L7.17032 31.168C7.54298 30.95 7.91564 30.732 8.27423 30.5L7.60626 29.4312ZM2.59298 30.5773L1.72814 31.5055C2.11907 31.8781 2.60142 32.1242 3.12736 32.2367L3.40861 31.0063C3.09642 30.943 2.80462 30.7883 2.59298 30.5773ZM5.47579 30.5984C5.12353 30.7602 4.7579 30.8867 4.37892 30.9641L4.6672 32.2016C5.11861 32.1102 5.54329 31.9414 5.96798 31.7656L5.47579 30.5984ZM25.1844 30.9359L24.207 31.7305C24.5094 32.1031 24.882 32.4617 25.2055 32.7148L25.9859 31.7164C25.6766 31.4773 25.4094 31.1891 25.1844 30.9359ZM26.8789 32.1664L26.5625 33.3969C27.118 33.5094 27.5328 33.5445 28.0531 33.4883L27.8985 32.2297C27.5539 32.2859 27.2164 32.2508 26.8789 32.1664Z" fill="#F6F6F6"/>
</svg>
