<svg width="136" height="90" viewBox="0 0 136 90" fill="none" xmlns="http://www.w3.org/2000/svg">
<path d="M133.599 51.5408C111.359 54.6464 76.9759 68.1699 45.5926 86.1594C51.456 85.3344 58.1797 83.7837 65.4691 81.6156C64.9785 88.8428 75.9517 92.59 79.3655 84.6684C80.6335 81.7262 80.0126 79.1357 78.4824 77.308C95.8825 71.0219 115.28 62.0313 133.598 51.5412L133.599 51.5408ZM115.251 82.3242C117.929 76.1092 108.631 72.0981 105.951 78.3164C103.271 84.5356 112.572 88.5397 115.251 82.3242ZM131.969 35.1899C134.647 28.9746 125.349 24.9631 122.669 31.1821C122.556 31.444 122.465 31.6991 122.394 31.9529C116.776 32.4204 110.559 33.1653 107.633 33.38C117.02 28.391 126.407 22.8793 135.463 16.8086C116.007 20.2769 97.8636 25.2505 80.6375 31.5725C93.4974 25.6522 106.636 18.3841 119.177 10.0971C94.9781 11.808 58.8969 26.5196 26.8791 47.7021C36.4803 47.0105 48.1067 44.1881 60.4774 39.8114C48.7968 45.0204 37.4876 50.8758 26.4214 57.3309C28.4289 51.3974 19.5457 47.7539 16.9361 53.8094C15.4069 57.358 17.7813 60.1786 20.5973 60.7977C13.7729 64.939 7.0315 69.3122 0.342703 73.9048C12.2638 74.4123 27.7818 72.1325 44.6976 67.6733C36.2041 72.0808 27.9644 76.9623 20.0176 82.2947C43.2364 81.7031 77.7565 68.2105 108.104 47.8643C104.206 47.958 99.9982 48.4155 95.5453 49.2056C104.842 44.8993 113.929 40.1321 122.492 35.0033C123.904 38.6928 129.904 39.9814 131.969 35.189L131.969 35.1899ZM80.821 12.0638C83.4994 5.84853 74.201 1.83698 71.521 8.05596C68.8409 14.2749 78.1423 18.279 80.8207 12.0637L80.821 12.0638ZM62.1023 7.95996C64.7807 1.74469 55.4824 -2.26686 52.8023 3.95212C50.1222 10.1711 59.4237 14.1749 62.1021 7.95986L62.1023 7.95996ZM52.701 22.2589C57.2977 11.5923 41.3369 4.70623 36.7373 15.3793C32.1379 26.0519 48.1042 32.9254 52.701 22.2589Z" fill="#FD932D" fill-opacity="0.24"/>
</svg>
